<svg width="1095" height="400" viewBox="0 0 1095 400" fill="none" xmlns="http://www.w3.org/2000/svg">
<path d="M614.446 164.994C610.088 169.352 604.892 172.768 598.857 175.24C592.865 177.67 586.328 178.886 579.246 178.886C572.164 178.886 565.627 177.67 559.634 175.24C553.642 172.81 548.425 169.394 543.983 164.994C539.583 160.552 536.147 155.356 533.674 149.406C531.244 143.413 530.029 136.897 530.029 129.857C530.029 122.775 531.244 116.259 533.674 110.308C536.147 104.316 539.583 99.1197 543.983 94.7196C548.425 90.3196 553.642 86.9044 559.634 84.4739C565.627 82.0434 572.164 80.8281 579.246 80.8281C586.286 80.8281 592.802 82.0643 598.795 84.5367C604.829 86.9672 610.004 90.3406 614.32 94.6568L604.703 104.463C601.56 100.901 597.789 98.1139 593.389 96.1025C589.031 94.0492 584.254 93.0225 579.057 93.0225C574.029 93.0225 569.398 93.9444 565.166 95.7882C560.933 97.5901 557.246 100.167 554.103 103.52C550.96 106.83 548.509 110.727 546.749 115.211C545.031 119.695 544.172 124.577 544.172 129.857C544.172 135.137 545.031 140.019 546.749 144.503C548.509 148.987 550.96 152.905 554.103 156.257C557.246 159.568 560.933 162.145 565.166 163.989C569.398 165.79 574.029 166.691 579.057 166.691C584.254 166.691 589.031 165.686 593.389 163.674C597.789 161.621 601.539 158.813 604.64 155.251L614.446 164.994ZM642.795 177H628.966V82.7139H642.795V124.451H691.446V82.7139H705.275V177H691.446V136.583H642.795V177ZM731.235 177H716.715L755.058 82.7139H769.892L808.173 177H793.653L784.224 153.303H740.664L731.235 177ZM745.378 141.108H779.51L762.412 98.0511L745.378 141.108ZM819.676 177V82.7139H833.504V177H819.676ZM934.83 177H919.619L865.436 104.211V177H851.607V82.7139H866.819L921.002 155.566V82.7139H934.83V177ZM534.051 316V221.714H567.994C577.381 221.714 584.715 223.809 589.995 228C595.316 232.19 597.977 237.994 597.977 245.411C597.977 250.44 596.741 254.84 594.269 258.611C591.838 262.383 588.57 265.148 584.463 266.908C590.078 268.375 594.478 271.12 597.663 275.143C600.848 279.124 602.44 284.006 602.44 289.788C602.44 295.027 601.141 299.615 598.543 303.554C595.987 307.493 592.362 310.552 587.669 312.731C583.017 314.91 577.57 316 571.326 316H534.051ZM547.88 262.634H567.429C572.583 262.634 576.69 261.314 579.749 258.674C582.808 256.034 584.337 252.514 584.337 248.114C584.337 243.714 582.766 240.257 579.623 237.743C576.522 235.186 572.269 233.908 566.863 233.908H547.88V262.634ZM547.88 303.806H568.12C572.185 303.806 575.726 303.156 578.743 301.857C581.76 300.516 584.107 298.672 585.783 296.326C587.459 293.937 588.297 291.171 588.297 288.028C588.297 284.969 587.501 282.308 585.909 280.046C584.358 277.783 582.137 276.065 579.246 274.891C576.355 273.676 572.96 273.068 569.063 273.068H547.88V303.806ZM690.126 316H674.726L653.166 279.103H630.223V316H616.395V221.714H652.978C660.018 221.714 666.052 222.866 671.081 225.171C676.109 227.476 679.985 230.765 682.709 235.04C685.433 239.314 686.795 244.426 686.795 250.377C686.795 257.04 685.098 262.655 681.704 267.223C678.309 271.79 673.511 275.038 667.309 276.966L690.126 316ZM630.223 267.411H652.035C658.488 267.411 663.538 265.945 667.183 263.011C670.829 260.036 672.652 255.908 672.652 250.628C672.652 245.39 670.829 241.304 667.183 238.371C663.58 235.396 658.53 233.908 652.035 233.908H630.223V267.411ZM703.264 316V221.714H717.092V316H703.264ZM735.195 316V221.714H763.607C775.089 221.714 784.999 223.621 793.338 227.434C801.677 231.205 808.089 236.611 812.573 243.651C817.057 250.691 819.298 259.093 819.298 268.857C819.298 278.579 817.057 286.981 812.573 294.063C808.089 301.103 801.677 306.529 793.338 310.343C784.999 314.114 775.089 316 763.607 316H735.195ZM749.024 303.806H764.172C772.847 303.806 780.243 302.444 786.361 299.72C792.479 296.954 797.131 292.973 800.315 287.777C803.542 282.539 805.156 276.232 805.156 268.857C805.156 261.44 803.542 255.133 800.315 249.937C797.131 244.741 792.479 240.781 786.361 238.057C780.243 235.291 772.847 233.908 764.172 233.908H749.024V303.806ZM903.716 241.891C900.447 238.706 896.613 236.276 892.213 234.6C887.813 232.882 883.141 232.022 878.196 232.022C873.125 232.022 868.453 232.902 864.179 234.662C859.946 236.423 856.28 238.937 853.179 242.205C850.12 245.474 847.731 249.35 846.013 253.834C844.337 258.318 843.499 263.263 843.499 268.668C843.499 274.074 844.337 279.04 846.013 283.566C847.689 288.091 850.057 292.009 853.116 295.32C856.217 298.63 859.862 301.187 864.053 302.989C868.285 304.79 872.916 305.691 877.944 305.691C882.47 305.691 886.64 304.958 890.453 303.491C894.266 302.025 897.619 299.929 900.51 297.206C903.402 294.482 905.748 291.213 907.55 287.4C909.352 283.587 910.505 279.375 911.007 274.766H878.887V264.017H923.265L923.642 269.171C923.642 276.337 922.531 282.895 920.31 288.846C918.089 294.796 914.926 299.95 910.819 304.309C906.754 308.625 901.914 311.977 896.299 314.366C890.725 316.712 884.565 317.886 877.819 317.886C870.862 317.886 864.43 316.67 858.521 314.24C852.655 311.768 847.521 308.331 843.121 303.931C838.763 299.489 835.369 294.293 832.938 288.343C830.55 282.392 829.356 275.939 829.356 268.983C829.356 261.943 830.571 255.447 833.001 249.497C835.432 243.504 838.826 238.287 843.184 233.845C847.584 229.403 852.739 225.967 858.647 223.537C864.556 221.064 870.988 219.828 877.944 219.828C884.523 219.828 890.788 220.96 896.739 223.222C902.731 225.485 908.053 228.733 912.705 232.965L903.716 241.891ZM937.722 316V221.714H996.494V233.908H951.55V262.131H993.916V274.326H951.55V303.806H997.122V316H937.722Z" fill="#EBE7DE"/>
<path d="M214.933 52.3167H198.887C198.022 94.2194 167.471 132.13 133.854 154.789C125.319 160.542 116.658 165.546 106.828 168.792C102.092 170.356 94.4735 171.017 91.6492 175.804C88.5125 181.121 90.6873 193.366 91.3849 199.273C93.8823 220.431 97.6128 239.356 107.933 258.393C156.697 348.344 287.764 368.301 374.558 328.493C422.353 306.571 464.672 261.921 469.851 207.718C470.547 200.436 469.378 193.031 470.236 185.759C470.589 182.765 471.901 178.025 469.971 175.328C466.704 170.762 455.606 169.844 450.57 167.851C437.493 162.676 425.281 155.064 414.253 146.347C385.817 123.868 363.579 88.0244 363.579 51.4721C359.762 51.5194 351.089 49.9265 348.041 52.3403C344.207 55.3766 347.125 68.6617 345.657 73.431C341.816 85.9088 332.55 99.1289 323.026 107.914C285.558 142.481 232.816 119.307 216.994 74.2756C214.676 67.6786 215.483 59.2844 214.933 52.3167Z" fill="white"/>
<path d="M215.778 92.0107V194.204H236.048V140.151L235.539 116.579L227.964 108.057L215.778 92.0107ZM345.843 92.0107C340.264 100.278 328.78 109.227 325.355 118.193C322.382 125.975 324.955 137.956 325.498 146.064C326.122 155.399 324.728 165.337 324.728 174.779C324.728 179.076 322.839 189.369 325.596 192.85C328.45 196.453 341.545 195.049 345.843 195.049V121.571V92.0107ZM195.508 97.0782C190.953 107.962 180.551 116.693 176.698 127.483C174.94 132.406 176.083 139.202 176.083 144.374V178.157C176.077 182.004 174.025 192.323 177.437 195.025C181.123 197.944 191.793 195.049 196.353 195.049L197.197 97.0782H195.508ZM364.423 100.456L365.268 195.893C369.921 195.893 381.294 197.983 385.028 195.025C389.356 191.598 386.156 173.857 385.681 168.867C384.576 157.251 387.362 144.866 385.142 133.395C383.312 123.938 371.332 107.155 364.423 100.456ZM242.805 121.571L242.036 178.157L241.96 193.36C246.332 194.287 259.878 196.014 263.051 192.006C265.323 189.135 263.919 181.642 263.919 178.157C263.919 168.136 263.113 157.729 264.062 147.753C264.473 143.442 266.246 136.741 263.768 132.785C260.828 128.091 247.909 123.954 242.805 121.571ZM297.702 130.861L296.857 193.36H317.972L318.816 122.415L297.702 130.861ZM270.675 133.395V193.36H291.79C291.79 178.765 290.342 163.969 290.978 149.442C291.137 145.827 293.841 137.1 290.448 134.412C287.074 131.739 275.026 133.431 270.675 133.395ZM167.637 136.773C162.436 143.6 153.159 148.96 149.08 156.342C145.447 162.916 147.603 180.081 148.57 187.448C148.895 189.914 148.265 195.03 150.411 196.713C153.844 199.407 165.155 196.42 169.327 195.893L169.326 156.198L169.327 136.773H167.637ZM392.294 139.307V179.846L393.863 195.384L411.719 198.427L412.639 168.867L412.54 157.285L392.294 139.307ZM141.456 161.266C135.919 165.001 128.773 168.279 123.988 172.909C120.94 175.858 119.855 196.462 123.384 199.248C126.093 201.386 141.103 199.686 142.632 196.469C144.793 191.92 142.3 180.869 142.3 175.624C142.3 171.105 143.217 165.463 141.456 161.266ZM419.321 162.955C419.321 171.378 419.656 179.878 419.288 188.292C419.17 190.971 417.488 195.465 419.345 197.8C422.315 201.536 435.122 200.769 439.59 200.961C439.59 194.389 442.464 178.971 438.722 173.51C435.843 169.31 424.139 164.48 419.321 162.955ZM446.347 176.468C445.717 181.452 442.59 198.121 446.856 201.667C450.457 204.658 458.057 203.495 462.394 203.495C463.417 197.985 464.983 186.286 460.436 181.966C457.08 178.778 450.606 178.056 446.347 176.468ZM116.118 200.961V177.313C105.11 178.273 98.3966 181.748 98.3823 193.36C98.3798 195.773 97.6948 200.051 99.8535 201.781C102.895 204.218 112.507 201.631 116.118 200.961ZM216.623 211.94V243.19L198.311 243.038L196.353 234.744V212.785C166.439 212.785 136.414 218.254 106.828 222.075C108.542 261.368 148.96 293.506 179.461 311.769C244.464 350.69 338.021 344.878 399.051 301.346C426.208 281.975 448.734 256.367 455.637 222.92L427.766 218.456L365.268 213.629C365.268 219.894 368.448 239.416 362.498 243.166C358.443 245.723 349.677 244.034 344.998 244.034V211.94H216.623Z" fill="#13324B"/>
<path d="M276.587 255.014C247.63 245.208 194.817 253.79 205 295.553C209.469 313.88 224.274 319.564 241.115 321.964C271.885 326.348 304.596 311.509 298.421 275.333C297.38 269.234 289.609 274.035 287.685 277.129C285.207 281.113 286.001 286.207 284.56 290.486C282.25 297.343 271.923 307.206 264.763 308.731C247.591 312.389 205.383 302.444 221.665 276.973C235.125 255.915 266.321 276.403 276.587 255.014ZM265.608 303.154C282.738 299.698 277.299 273.236 294.324 266.95C304.915 263.04 325.495 264.184 334.862 270.764C345.698 278.376 346.646 295.579 335.704 303.46C324.99 311.177 311.91 306.548 300.235 308.651C294.439 309.696 287.486 316.307 284.189 320.89C297.167 320.998 309.94 323.704 323.039 322.436C354.199 319.421 372.004 282.711 345.839 260.261C337.683 253.263 324.945 251.636 314.593 251.635C306.147 251.635 297.324 250.775 289.256 253.797C269.492 261.199 260.517 283.477 265.608 303.154Z" fill="white"/>
</svg>
